<svg version="1.1" id="Layer_1" xmlns="http://www.w3.org/2000/svg" xmlns:xlink="http://www.w3.org/1999/xlink" x="0px" y="0px"
	 width="100%" viewBox="0 0 496 496" enable-background="new 0 0 496 496" xml:space="preserve">
<path fill="#000000" opacity="1.000000" stroke="none" 
	d="
M203.564270,380.523621 
	C207.154602,380.928131 207.376648,383.171112 207.400879,385.680878 
	C207.464615,392.280762 207.135803,398.908051 208.365860,406.777100 
	C212.368881,400.253693 216.117554,394.972473 218.966629,389.243835 
	C221.308060,384.535889 224.551163,386.231018 227.798828,386.931854 
	C230.893997,387.599854 233.223709,388.849579 233.266068,392.818939 
	C233.408157,406.134705 232.893326,419.462036 233.841248,432.767212 
	C234.031311,435.434967 232.791534,436.163208 230.125168,435.745392 
	C222.497543,434.550110 221.993286,433.715881 222.339264,426.144073 
	C222.692535,418.412720 222.417435,410.652649 222.417435,401.715454 
	C217.651535,410.007629 213.492111,417.334290 209.233047,424.602539 
	C207.878891,426.913452 207.111496,429.748779 202.967300,428.552460 
	C199.137680,427.446960 198.603683,425.287445 198.660736,421.943329 
	C198.804459,413.520721 198.708313,405.093964 197.767853,396.396851 
	C194.086472,402.985474 190.375961,409.558044 186.731400,416.166962 
	C182.532883,423.780396 180.052490,424.323364 172.222702,419.018646 
	C173.774475,414.100616 177.160492,410.121033 179.704071,405.709625 
	C183.859497,398.502808 188.579025,391.610077 192.511703,384.289948 
	C195.126511,379.422852 198.114548,377.625031 203.564270,380.523621 
z"/>
<path fill="#000000" opacity="1.000000" stroke="none" 
	d="
M311.652954,103.280411 
	C305.140381,115.593277 294.695679,119.370575 279.604797,114.731621 
	C269.738159,111.698608 270.868134,113.390656 273.542175,103.375999 
	C276.238556,93.277893 279.151917,83.237396 281.807892,73.129005 
	C282.872131,69.078674 284.415741,66.711082 289.038727,69.041260 
	C290.633148,69.844902 292.510681,70.152634 294.294952,70.503540 
	C308.872559,73.370445 317.979126,88.188362 311.652954,103.280411 
M301.770081,95.010956 
	C302.029724,87.950562 299.726715,83.332230 294.959290,81.336647 
	C293.145813,80.577553 291.311371,80.012199 290.596344,82.625740 
	C288.761383,89.332802 287.081390,96.082596 285.214172,102.780380 
	C284.317657,105.996086 286.159363,106.509888 288.599976,106.674850 
	C294.406738,107.067329 299.066742,103.193329 301.770081,95.010956 
z"/>
<path fill="#000000" opacity="1.000000" stroke="none" 
	d="
M93.028320,296.771210 
	C109.881851,288.982971 124.691406,297.785736 129.885880,320.838196 
	C122.440620,324.112061 114.891518,327.451996 107.324799,330.751495 
	C102.456818,332.874268 97.481033,334.768677 92.707428,337.082794 
	C89.119652,338.822083 87.386055,337.862579 85.988319,334.260437 
	C83.125732,326.883179 79.029404,319.947937 81.425507,311.396637 
	C83.249046,304.888763 86.835114,300.128387 93.028320,296.771210 
M108.358475,306.105804 
	C102.109512,304.481537 97.121895,306.733215 93.462868,311.628937 
	C90.578964,315.487579 90.287270,319.839386 93.261971,324.629486 
	C99.625763,321.939423 105.869400,319.314453 112.099197,316.657074 
	C113.744400,315.955322 116.060387,315.668671 116.324860,313.613556 
	C116.623062,311.296326 114.814148,309.629395 113.083427,308.324341 
	C111.913155,307.441895 110.436394,306.965942 108.358475,306.105804 
z"/>
<path fill="#000000" opacity="1.000000" stroke="none" 
	d="
M434.745605,260.676514 
	C435.919525,264.344086 435.201172,267.485382 433.515381,270.977539 
	C429.080261,270.352112 424.630157,269.988159 420.309845,269.035553 
	C416.566559,268.210205 415.447357,269.750397 415.348145,273.066193 
	C415.298553,274.722504 415.377838,276.487946 414.837372,278.003876 
	C413.409241,282.009491 415.555206,283.082550 418.850616,283.503265 
	C421.978363,283.902557 425.087402,284.508911 428.225769,284.751160 
	C434.015198,285.197998 431.039429,289.301697 431.143036,291.886108 
	C431.244781,294.423340 430.329559,296.222717 426.866791,295.622742 
	C417.047913,293.921417 407.169495,292.561920 397.310120,291.097412 
	C394.849274,290.731873 392.352570,290.585358 389.906799,290.146240 
	C386.721100,289.574341 384.247498,288.620880 385.155548,284.272949 
	C385.937347,280.529694 386.833679,277.799194 391.454742,278.850281 
	C393.726410,279.366974 396.021271,279.791626 398.317810,280.187103 
	C403.891937,281.146973 404.818207,280.501129 405.531006,275.043274 
	C405.831116,272.745605 405.954254,270.424835 406.180878,267.853271 
	C402.840698,265.964325 399.113220,265.544556 395.309204,265.279144 
	C388.888977,264.831177 386.653992,260.367218 390.127472,255.075104 
	C391.268890,253.336044 393.064484,253.630966 394.648651,253.884583 
	C407.928619,256.010590 421.195435,258.219025 434.745605,260.676514 
z"/>
<path fill="#000000" opacity="1.000000" stroke="none" 
	d="
M371.798218,134.193939 
	C375.750580,136.927216 375.587402,139.289230 372.451660,142.396057 
	C366.779022,148.016418 361.559082,154.090790 355.969360,159.798553 
	C349.859772,166.037216 343.494415,166.429642 336.304321,161.370697 
	C332.111877,158.420898 328.679169,154.829132 327.384155,149.752899 
	C326.765656,147.328400 325.461487,143.798035 328.902618,142.924652 
	C331.810699,142.186539 335.212372,143.106201 336.536652,146.903976 
	C337.073883,148.444748 337.774292,150.056534 338.826294,151.265457 
	C341.753204,154.628906 345.079376,155.268692 349.112640,151.866394 
	C344.833740,149.378922 340.691101,147.279480 338.531921,142.804031 
	C335.180908,135.858200 337.736420,127.611412 344.919617,122.962219 
	C351.343048,118.804756 359.512756,120.008736 363.997803,126.374229 
	C366.138153,129.411911 368.485840,131.946091 371.798218,134.193939 
M355.842651,131.498657 
	C351.696075,130.817108 348.953400,132.387955 348.221497,136.619827 
	C347.635956,140.005707 348.993195,142.610291 352.382568,143.604843 
	C356.045898,144.679779 358.580933,142.878036 359.969147,139.612717 
	C361.532684,135.934891 359.371216,133.648758 355.842651,131.498657 
z"/>
<path fill="#000000" opacity="1.000000" stroke="none" 
	d="
M150.290955,343.872345 
	C151.369904,348.504486 154.712082,350.674561 157.970367,353.039429 
	C161.107086,355.316071 161.508331,357.659271 158.237167,360.660278 
	C148.674316,369.433411 139.281982,378.398254 130.008301,387.477386 
	C127.025238,390.397827 125.297775,389.043335 123.114899,386.682007 
	C120.975655,384.367859 119.584435,382.582214 122.583191,379.655334 
	C126.375954,375.953461 129.643417,371.713409 133.172180,367.665619 
	C126.625473,365.278473 121.770073,360.062347 122.970352,351.718628 
	C123.866859,345.486572 127.775230,340.736816 134.047684,338.700867 
	C140.415497,336.633972 145.851334,338.259827 150.290955,343.872345 
M140.256119,361.515533 
	C141.415802,360.920044 142.695465,360.480286 143.711182,359.697876 
	C146.109055,357.850769 146.470963,355.236084 145.620514,352.557159 
	C144.786240,349.929108 142.541550,348.639832 139.964645,348.498962 
	C137.226669,348.349243 135.396027,350.079773 134.250092,352.477753 
	C132.338165,356.478668 134.104614,359.488770 140.256119,361.515533 
z"/>
<path fill="#000000" opacity="1.000000" stroke="none" 
	d="
M378.522125,356.336792 
	C377.278534,362.751190 372.897583,365.841370 367.325165,368.253204 
	C370.650879,372.720825 374.711548,375.906219 378.415833,379.393494 
	C380.980225,381.807648 381.462830,383.592346 378.721985,386.343506 
	C375.957794,389.118011 373.966522,389.671021 370.926453,386.673492 
	C362.275146,378.143341 353.350616,369.891083 344.591827,361.468903 
	C339.861877,356.920746 340.369781,353.498840 346.393799,350.753845 
	C347.899933,350.067535 348.788208,349.428467 349.473022,347.979279 
	C353.411407,339.644684 358.890137,336.590973 366.290649,338.464722 
	C374.393402,340.516296 379.164917,347.283752 378.522125,356.336792 
M362.241760,348.529816 
	C360.439880,348.311005 358.966583,349.072052 357.738678,350.246338 
	C355.317291,352.561920 354.373688,355.282104 356.430206,358.261566 
	C358.261932,360.915283 360.645752,362.627625 364.050690,360.875854 
	C367.333069,359.187073 368.385132,356.401794 367.522247,352.932312 
	C366.942719,350.602020 364.973053,349.572815 362.241760,348.529816 
z"/>
<path fill="#000000" opacity="1.000000" stroke="none" 
	d="
M135.980896,128.370880 
	C138.166901,127.633804 139.609604,126.802673 140.744492,124.842834 
	C144.602295,118.180840 150.154114,115.527580 156.358917,116.879211 
	C163.671494,118.472153 168.542526,124.291870 169.132202,132.140198 
	C169.577927,138.072952 165.905731,143.370407 159.312195,146.215546 
	C158.401917,146.608322 157.384827,146.758621 156.661514,147.983780 
	C158.071136,151.457077 161.316650,153.695084 163.664627,156.590469 
	C166.813828,160.473862 163.167480,161.652176 161.313324,163.687393 
	C159.145172,166.067245 157.488266,165.416550 155.621231,163.224136 
	C147.979553,154.250626 140.276169,145.329025 132.532883,136.442902 
	C128.322083,131.610626 134.001328,130.923691 135.980896,128.370880 
M153.869888,139.569107 
	C157.434326,137.682617 160.059036,135.232315 157.592819,130.928436 
	C155.990005,128.131287 153.296783,126.491798 150.018448,127.685532 
	C147.208038,128.708878 145.075317,131.083725 145.601196,134.169754 
	C146.258698,138.028275 148.858368,140.232880 153.869888,139.569107 
z"/>
<path fill="#000000" opacity="1.000000" stroke="none" 
	d="
M142.138031,155.189453 
	C143.585739,164.944260 138.901001,173.921997 130.743576,177.107712 
	C125.239281,179.257309 119.880196,178.824722 115.384583,174.686951 
	C110.891960,170.551926 109.088074,165.422607 110.803543,159.343933 
	C113.055954,151.362656 119.774529,145.137726 126.625648,144.671295 
	C133.667908,144.191864 138.600525,147.429581 142.138031,155.189453 
M124.978508,167.574966 
	C128.300568,168.052292 130.889328,167.018173 132.304993,163.836609 
	C133.352814,161.481720 132.913620,159.239059 131.194275,157.381729 
	C129.514175,155.566803 127.353073,154.700531 124.890358,155.408752 
	C122.280159,156.159393 120.681633,157.925476 120.333946,160.710007 
	C119.929893,163.945877 121.254021,166.153427 124.978508,167.574966 
z"/>
<path fill="#000000" opacity="1.000000" stroke="none" 
	d="
M398.768066,324.948669 
	C391.444885,329.283752 385.301575,329.122620 380.033356,324.708191 
	C375.218842,320.673950 373.646973,312.673492 376.344421,305.932190 
	C379.785492,297.332550 386.393677,292.863403 393.794128,294.130859 
	C406.044434,296.228912 410.773499,310.792572 402.531158,321.142914 
	C401.502533,322.434631 400.218323,323.522797 398.768066,324.948669 
M387.259369,316.188721 
	C391.635651,318.080444 394.945007,317.089813 396.659790,313.275635 
	C398.442383,309.310699 396.211670,307.011139 393.077087,305.236542 
	C390.256042,303.639404 387.887207,304.719879 386.053680,306.955444 
	C383.560974,309.994843 383.744293,313.014648 387.259369,316.188721 
z"/>
<path fill="#000000" opacity="1.000000" stroke="none" 
	d="
M108.592415,260.375854 
	C115.878654,267.316223 117.501328,275.806335 113.188751,283.120697 
	C109.536690,289.314789 102.025925,292.122955 95.476875,289.742859 
	C88.286774,287.129761 83.991997,279.868195 84.874428,271.816284 
	C85.646553,264.770874 90.649597,260.224518 98.567947,259.575165 
	C101.581505,265.418518 100.137192,272.535217 103.060127,278.560455 
	C107.352890,276.251404 108.258316,272.324738 104.970268,268.770874 
	C102.439034,266.035004 103.335747,263.657898 104.336319,261.031342 
	C105.152649,258.888428 106.648041,258.952118 108.592415,260.375854 
M92.816055,272.131958 
	C91.836586,275.018280 91.213112,277.774902 95.202751,279.144623 
	C96.212433,273.274017 96.086105,272.826355 92.816055,272.131958 
z"/>
<path fill="#000000" opacity="1.000000" stroke="none" 
	d="
M186.841187,128.420197 
	C175.514252,131.212173 168.363297,127.587021 165.702896,118.052925 
	C163.773682,111.139221 167.679779,103.691772 175.063049,100.206604 
	C182.041641,96.912453 189.365234,98.835678 193.645203,104.899727 
	C195.495667,107.521545 194.802917,109.005089 192.137863,110.333725 
	C187.404175,112.693672 182.756058,115.225296 178.036423,117.703857 
	C180.885574,121.806580 184.512878,121.710869 187.957382,117.253784 
	C189.792130,114.879700 191.727585,113.716446 194.663544,113.912933 
	C197.316727,114.090485 198.275726,115.230827 197.324448,117.817673 
	C195.494171,122.794769 192.021179,126.164482 186.841187,128.420197 
M178.958725,110.384247 
	C180.249405,109.509262 182.121460,109.424713 182.785812,107.647301 
	C178.252777,105.235725 176.216766,106.205284 175.254776,111.188240 
	C176.475525,112.137840 177.356979,110.984253 178.958725,110.384247 
z"/>
<path fill="#000000" opacity="1.000000" stroke="none" 
	d="
M153.484589,385.153290 
	C151.074646,380.692932 151.323273,376.504822 152.947388,372.279968 
	C154.119553,369.230774 156.087830,368.625488 158.801270,370.403168 
	C162.277328,372.680481 165.725143,375.001617 169.225052,377.241486 
	C170.427551,378.011047 171.833420,379.338104 173.124634,377.587921 
	C174.220825,376.102142 173.104294,374.672974 172.206512,373.532135 
	C170.587891,371.475281 168.358841,370.362000 165.721512,370.310242 
	C161.818466,370.233582 160.124298,367.192749 160.291504,364.428070 
	C160.470367,361.470490 163.916580,361.627350 166.406662,361.720703 
	C174.508057,362.024445 181.848480,368.802307 183.048325,376.994598 
	C183.995972,383.464935 179.731949,390.202484 173.167145,392.607727 
	C165.928497,395.259857 159.055466,392.752045 153.484589,385.153290 
M165.402405,382.036591 
	C163.910431,381.270111 162.725510,379.635040 160.575531,380.154633 
	C160.199982,383.799805 162.516922,384.898651 165.147675,385.631195 
	C166.100388,385.896484 167.296249,385.830627 167.734360,384.785187 
	C168.376129,383.253601 166.866104,382.946320 165.402405,382.036591 
z"/>
<path fill="#000000" opacity="1.000000" stroke="none" 
	d="
M408.298737,207.439575 
	C417.964966,215.302399 418.701752,227.185547 410.192932,233.597610 
	C408.175446,235.117950 405.763763,236.629776 403.336060,235.690872 
	C400.947540,234.767120 401.067963,231.929153 400.659821,229.643829 
	C399.911377,225.453232 399.022614,221.287689 398.178009,217.039566 
	C393.535858,218.888626 392.584106,222.553848 395.289307,226.560516 
	C398.509827,231.330460 398.509827,231.330444 395.567444,236.515457 
	C387.340454,233.759216 383.190186,223.708313 386.624176,214.857178 
	C390.098755,205.901398 398.289978,202.977905 408.298737,207.439575 
M404.930634,220.638153 
	C405.616608,221.984024 404.839203,224.109741 407.014923,224.707748 
	C409.945984,220.251663 409.375244,217.968658 404.815216,216.104218 
	C404.231934,217.389954 404.332489,218.673004 404.930634,220.638153 
z"/>
<path fill="#000000" opacity="1.000000" stroke="none" 
	d="
M321.849823,122.232407 
	C323.756378,124.067299 325.724884,124.947929 327.997437,124.739761 
	C331.065491,124.458725 332.521606,126.487946 333.819336,128.651871 
	C335.016113,130.647430 334.438202,131.956879 332.110016,132.778885 
	C326.887665,134.622742 318.085693,131.807419 314.086823,126.822823 
	C309.792664,121.470139 309.266479,113.956665 312.813354,108.639603 
	C316.352600,103.334061 323.128998,100.784035 329.504425,102.358650 
	C336.542267,104.096855 341.754517,109.765022 342.187714,116.133568 
	C342.314758,118.001717 341.860565,119.747559 341.299927,121.513512 
	C340.131836,125.192818 338.257172,126.304413 334.667542,124.077644 
	C330.573700,121.538086 326.268616,119.338242 322.039734,117.019196 
	C321.791992,116.883347 321.404877,117.001610 321.032288,117.001610 
	C319.693634,118.851959 320.454773,120.428391 321.849823,122.232407 
M332.604462,114.594246 
	C331.578064,109.495941 329.540009,108.423729 324.749298,110.743156 
	C326.728943,113.174210 329.247711,114.415924 332.604462,114.594246 
z"/>
<path fill="#000000" opacity="1.000000" stroke="none" 
	d="
M91.968582,216.856400 
	C87.810654,210.715881 87.848274,204.723770 91.313553,198.774628 
	C94.339859,193.579102 98.893471,191.173950 105.034630,191.630432 
	C108.913452,191.918747 109.949265,193.684082 108.882675,197.211349 
	C107.408516,202.086533 106.007645,206.983856 104.550156,211.957825 
	C109.203575,212.373108 111.879555,209.682281 111.587036,205.294357 
	C111.511757,204.165222 110.787994,203.061676 110.793015,201.948303 
	C110.805725,199.129822 112.665031,197.173523 114.986229,196.344284 
	C117.267586,195.529282 117.873436,197.964569 118.600250,199.575134 
	C121.798744,206.662811 118.893356,216.014252 112.096039,220.631592 
	C105.461617,225.138306 98.297462,223.890472 91.968582,216.856400 
M96.397209,207.695892 
	C96.869118,208.959351 97.923523,210.092224 98.787315,208.585007 
	C99.967552,206.525620 101.767288,204.140091 99.583626,201.387299 
	C96.625175,202.390305 96.173187,204.529327 96.397209,207.695892 
z"/>
<path fill="#000000" opacity="1.000000" stroke="none" 
	d="
M339.049133,363.498596 
	C345.415436,365.883850 348.989014,370.049927 349.431458,376.555176 
	C349.896667,383.395813 346.923523,388.446503 341.026581,391.753021 
	C335.852875,394.653992 330.561340,394.918060 325.452515,391.614105 
	C319.942841,388.050934 319.996063,385.555176 325.322540,381.893951 
	C328.983459,379.377533 333.042908,377.398895 336.262024,374.201569 
	C332.980530,371.184326 329.401825,371.694183 326.823120,375.383484 
	C323.735718,379.800659 323.735718,379.800659 317.958282,378.900238 
	C316.858551,369.069824 327.106079,361.391571 339.049133,363.498596 
M335.575592,386.456482 
	C340.554230,384.071411 340.640839,383.941772 339.793671,379.790619 
	C337.929169,380.958374 336.101166,382.016083 334.368011,383.211304 
	C332.300659,384.637054 332.566833,385.778412 335.575592,386.456482 
z"/>
<path fill="#000000" opacity="1.000000" stroke="none" 
	d="
M376.303192,194.030304 
	C373.278473,181.428162 381.849152,172.376770 392.719788,173.781311 
	C398.818665,174.569336 404.619507,179.874496 406.062042,186.314697 
	C407.502197,192.744263 405.345825,198.317703 400.520294,201.681870 
	C397.343109,203.896881 395.295898,203.933014 393.737885,199.921295 
	C391.890594,195.164856 389.677948,190.550323 387.596832,185.813309 
	C383.268677,188.667160 382.993225,192.644089 387.222626,195.866318 
	C390.915039,198.679443 390.746033,201.774857 389.584259,205.803772 
	C382.316742,205.104660 378.959503,200.276062 376.303192,194.030304 
M396.231720,183.590561 
	C394.674408,183.128647 393.245422,183.280167 394.000092,185.306824 
	C394.765808,187.363266 395.038361,189.851135 397.522919,191.288681 
	C399.772491,188.479446 399.127411,186.155258 396.231720,183.590561 
z"/>
<path fill="#000000" opacity="1.000000" stroke="none" 
	d="
M84.933289,232.300766 
	C84.895958,228.799271 84.278465,225.638412 85.871567,221.734192 
	C91.464439,225.089798 96.795845,228.268616 102.106010,231.482529 
	C104.949463,233.203491 107.812492,234.901779 110.564651,236.761322 
	C113.552658,238.780243 114.155952,244.037125 111.091324,245.640701 
	C102.327599,250.226334 93.419708,254.615387 82.589722,258.549744 
	C84.330444,253.516907 81.367958,248.684250 85.980568,245.946686 
	C89.491936,243.862686 93.638069,242.848206 97.883331,241.210739 
	C94.118156,237.175247 88.335083,236.765839 84.933289,232.300766 
z"/>
<path fill="#000000" opacity="1.000000" stroke="none" 
	d="
M96.500320,170.423065 
	C105.827713,174.903107 114.753235,179.358429 123.841637,183.452148 
	C127.381058,185.046432 128.191162,186.712265 126.449509,190.301788 
	C124.877213,193.542282 123.482819,195.058884 119.715828,193.193176 
	C107.801804,187.292435 95.792633,181.580963 83.758820,175.927063 
	C80.906700,174.587067 80.507278,172.839432 82.128166,170.469925 
	C83.538063,168.408890 83.730797,164.388550 88.025627,166.466888 
	C90.718513,167.770020 93.449608,168.994217 96.500320,170.423065 
z"/>
<path fill="#000000" opacity="1.000000" stroke="none" 
	d="
M375.920502,339.121948 
	C372.577606,336.887421 369.612610,334.720581 366.470367,332.851807 
	C362.999512,330.787628 364.288452,328.715942 365.986023,326.316345 
	C367.567383,324.081024 368.602783,321.674438 372.123993,324.063873 
	C383.274902,331.630646 394.515503,339.071564 405.872955,346.323853 
	C409.251587,348.481262 408.340210,350.351929 406.579681,352.774841 
	C404.870544,355.127045 403.645844,357.539185 399.969116,354.971802 
	C392.198761,349.545929 384.153015,344.514343 375.920502,339.121948 
z"/>
<path fill="#000000" opacity="1.000000" stroke="none" 
	d="
M387.647156,156.744415 
	C390.218262,157.282944 391.945282,158.677505 393.024109,160.548569 
	C394.136688,162.478165 396.743195,164.672119 393.691467,166.931259 
	C390.559631,169.249756 386.793945,168.378448 384.994812,165.260559 
	C382.343475,160.665787 379.746887,159.955551 375.210419,162.753281 
	C372.955383,164.144012 370.696320,165.587677 368.680389,167.292664 
	C365.604950,169.893768 363.413055,170.294922 360.706787,166.445480 
	C357.932037,162.498581 359.512482,160.706680 362.733429,158.581299 
	C368.937592,154.487411 374.987854,150.160309 380.972382,146.019547 
	C385.372406,148.577393 386.326202,152.649918 387.647156,156.744415 
z"/>
<path fill="#000000" opacity="1.000000" stroke="none" 
	d="
M208.560333,102.000000 
	C209.394867,105.251007 210.142593,108.135513 210.962158,110.999451 
	C212.765182,117.299873 212.781754,117.302025 206.391129,119.059822 
	C205.450256,119.318619 204.483582,119.483665 203.062012,119.794006 
	C199.930145,111.523750 197.871048,103.046066 195.779404,94.602448 
	C195.143539,92.035515 200.259476,89.384583 204.076553,90.132286 
	C204.833252,90.280510 205.520752,90.782104 206.290466,91.144417 
	C208.477859,88.936005 210.464890,86.643723 213.641647,86.134201 
	C215.735794,85.798309 218.674484,84.825142 218.920624,87.763321 
	C219.145355,90.446106 219.876984,94.601913 215.339432,95.189087 
	C211.316101,95.709717 208.837570,97.407318 208.560333,102.000000 
z"/>
<path fill="#000000" opacity="1.000000" stroke="none" 
	d="
M316.548645,386.636536 
	C317.862640,389.924103 319.010437,392.861328 320.171722,395.793182 
	C322.429413,401.492981 320.667694,404.114136 314.449677,404.411743 
	C313.235687,404.469818 312.256226,403.921631 311.194000,403.298065 
	C309.382324,406.458710 307.304810,408.943542 303.733002,409.699860 
	C301.766449,410.116241 299.324524,411.100037 298.969757,408.196564 
	C298.661194,405.671356 297.526642,402.394867 301.052734,400.771210 
	C308.888947,397.162964 309.073669,396.583557 306.131592,388.478394 
	C304.962830,385.258728 302.918304,382.280853 302.971008,378.425842 
	C304.450439,377.691864 305.909851,376.950439 307.384125,376.239960 
	C310.422058,374.776031 312.361969,375.516602 313.397125,378.901184 
	C314.170685,381.430389 315.375702,383.827698 316.548645,386.636536 
z"/>
<path fill="#000000" opacity="1.000000" stroke="none" 
	d="
M250.152863,100.440918 
	C254.071106,103.024139 255.403473,105.986511 252.690063,109.826080 
	C250.699646,112.642563 246.063904,113.376480 243.391724,111.231583 
	C240.462128,108.880058 240.253220,105.794670 242.053360,102.773499 
	C243.788010,99.862244 246.534546,99.009567 250.152863,100.440918 
z"/>
<path fill="#000000" opacity="1.000000" stroke="none" 
	d="
M268.178772,386.698029 
	C272.980438,386.498230 275.111511,388.896088 275.149750,392.982910 
	C275.183868,396.630096 272.990906,398.865509 269.381348,399.247711 
	C265.361145,399.673431 262.953705,397.233551 262.415771,393.652710 
	C261.860657,389.957428 263.739227,387.306824 268.178772,386.698029 
z"/>
</svg>